<?xml version="1.0" encoding="UTF-8" standalone="no"?>
<!-- Created with Inkscape (http://www.inkscape.org/) -->

<svg
   width="48"
   height="48"
   viewBox="0 0 48 48"
   version="1.1"
   id="svg1"
   inkscape:version="1.3.2 (091e20ef0f, 2023-11-25)"
   sodipodi:docname="Search.svg"
   xmlns:inkscape="http://www.inkscape.org/namespaces/inkscape"
   xmlns:sodipodi="http://sodipodi.sourceforge.net/DTD/sodipodi-0.dtd"
   xmlns="http://www.w3.org/2000/svg"
   xmlns:svg="http://www.w3.org/2000/svg">
  <sodipodi:namedview
     id="namedview1"
     pagecolor="#ffffff"
     bordercolor="#eeeeee"
     borderopacity="1"
     inkscape:showpageshadow="0"
     inkscape:pageopacity="0"
     inkscape:pagecheckerboard="0"
     inkscape:deskcolor="#505050"
     inkscape:document-units="px"
     showguides="true"
     inkscape:zoom="6.894291"
     inkscape:cx="42.643979"
     inkscape:cy="42.28136"
     inkscape:window-width="2560"
     inkscape:window-height="1371"
     inkscape:window-x="0"
     inkscape:window-y="32"
     inkscape:window-maximized="1"
     inkscape:current-layer="layer1">
    <sodipodi:guide
       position="24,24"
       orientation="0,1"
       id="guide1"
       inkscape:locked="false"
       inkscape:label=""
       inkscape:color="rgb(0,134,229)" />
    <sodipodi:guide
       position="24,24"
       orientation="-1,0"
       id="guide2"
       inkscape:locked="false"
       inkscape:label=""
       inkscape:color="rgb(0,134,229)" />
    <sodipodi:guide
       position="12,24"
       orientation="-1,0"
       id="guide3"
       inkscape:locked="false"
       inkscape:label=""
       inkscape:color="rgb(0,134,229)" />
    <sodipodi:guide
       position="36,24"
       orientation="-1,0"
       id="guide4"
       inkscape:locked="false"
       inkscape:label=""
       inkscape:color="rgb(0,134,229)" />
    <sodipodi:guide
       position="24,36"
       orientation="0,1"
       id="guide5"
       inkscape:locked="false"
       inkscape:label=""
       inkscape:color="rgb(0,134,229)" />
    <sodipodi:guide
       position="24,12"
       orientation="0,1"
       id="guide6"
       inkscape:locked="false"
       inkscape:label=""
       inkscape:color="rgb(0,134,229)" />
    <sodipodi:guide
       position="24,42"
       orientation="0,1"
       id="guide7"
       inkscape:locked="false"
       inkscape:label=""
       inkscape:color="rgb(0,134,229)" />
    <sodipodi:guide
       position="24,30"
       orientation="0,1"
       id="guide8"
       inkscape:locked="false"
       inkscape:label=""
       inkscape:color="rgb(0,134,229)" />
    <sodipodi:guide
       position="24,18"
       orientation="0,1"
       id="guide9"
       inkscape:locked="false"
       inkscape:label=""
       inkscape:color="rgb(0,134,229)" />
    <sodipodi:guide
       position="24,6"
       orientation="0,1"
       id="guide10"
       inkscape:locked="false"
       inkscape:label=""
       inkscape:color="rgb(0,134,229)" />
    <sodipodi:guide
       position="6,24"
       orientation="-1,0"
       id="guide11"
       inkscape:locked="false"
       inkscape:label=""
       inkscape:color="rgb(0,134,229)" />
    <sodipodi:guide
       position="18,24"
       orientation="-1,0"
       id="guide12"
       inkscape:locked="false"
       inkscape:label=""
       inkscape:color="rgb(0,134,229)" />
    <sodipodi:guide
       position="30,24"
       orientation="-1,0"
       id="guide13"
       inkscape:locked="false"
       inkscape:label=""
       inkscape:color="rgb(0,134,229)" />
    <sodipodi:guide
       position="42,24"
       orientation="-1,0"
       id="guide14"
       inkscape:locked="false"
       inkscape:label=""
       inkscape:color="rgb(0,134,229)" />
    <sodipodi:guide
       position="0,48"
       orientation="0,48"
       id="guide15"
       inkscape:locked="false" />
    <sodipodi:guide
       position="48,48"
       orientation="48,0"
       id="guide16"
       inkscape:locked="false" />
    <sodipodi:guide
       position="48,0"
       orientation="0,-48"
       id="guide17"
       inkscape:locked="false" />
    <sodipodi:guide
       position="0,0"
       orientation="-48,0"
       id="guide18"
       inkscape:locked="false" />
  </sodipodi:namedview>
  <defs
     id="defs1" />
  <g
     inkscape:label="Layer 1"
     inkscape:groupmode="layer"
     id="layer1">
    <path
       d="M 29.824219,0 C 28.944743,0.00835185 28.066247,0.08202405 27.197266,0.21875 26.882201,0.28519434 26.568861,0.3601095 26.257812,0.44335938 25.492666,0.60050578 24.738279,0.80737488 24,1.0625 21.869751,1.8263705 19.90194,2.985583 18.201172,4.4785156 18.133702,4.5353068 18.066627,4.5926139 18,4.6503906 17.52664,5.0760211 17.07602,5.52664 16.650391,6 16.286219,6.3899455 15.939432,6.7960516 15.611328,7.2167969 15.274443,7.685728 14.960194,8.1707926 14.669922,8.6699219 14.021305,9.7216813 13.482512,10.837892 13.0625,12 c -0.09534,0.262823 -0.184583,0.527942 -0.267578,0.794922 -0.504034,1.639046 -0.770639,3.342501 -0.792969,5.05664 0.0037,-0.148741 0.01271,-0.298178 0.02734,-0.445312 C 12.009793,17.602428 12.00003,17.801128 12,18 c 10e-4,0.05366 0.0034,0.106613 0.0059,0.160156 0.01941,1.055727 0.128119,2.108294 0.332032,3.144531 0.171387,0.915702 0.413724,1.817115 0.724609,2.695313 0.208545,0.59076 0.44782,1.17052 0.716797,1.736328 L 1.7578125,37.757812 C 0.63254696,38.882838 2.4037514e-4,40.408804 0,42 2.4037465e-4,43.591193 0.63254921,45.117165 1.7578125,46.242187 2.8828332,47.367449 4.4088106,47.99976 6,48 7.5911894,47.99976 9.1171663,47.367449 10.242188,46.242187 L 22.263672,34.220703 C 22.829474,34.489677 23.409246,34.728957 24,34.9375 c 0.878186,0.310881 1.779625,0.553225 2.695312,0.724609 C 27.783884,35.876329 28.89056,35.989477 30,36 c 0.04972,-8e-6 0.09886,-6.69e-4 0.148437,-0.002 1.714083,-0.02233 3.417651,-0.288953 5.056641,-0.792969 0.26697,-0.08295 0.532109,-0.172239 0.794922,-0.267578 1.162056,-0.419993 2.278365,-0.958833 3.330078,-1.607422 0.499108,-0.290259 0.984215,-0.604536 1.453125,-0.941406 C 41.203927,32.060585 41.610075,31.713762 42,31.349609 42.473333,30.924004 42.924004,30.473333 43.349609,30 43.407379,29.93338 43.464698,29.866293 43.521484,29.798828 45.014322,28.098169 46.173678,26.130113 46.9375,24 c 0.255107,-0.738226 0.462005,-1.492721 0.619141,-2.257813 0.08324,-0.311023 0.15817,-0.624411 0.224609,-0.939453 C 47.927094,19.875806 48.000262,18.938332 48,18 47.999418,15.956352 47.650548,13.926563 46.96875,12 46.757051,11.402408 46.513778,10.816073 46.240234,10.244141 45.505094,8.7029108 44.553779,7.2733087 43.416016,6 43.193696,5.7508807 42.964348,5.5078506 42.728516,5.2714844 42.492149,5.0356517 42.249118,4.8063032 42,4.5839844 40.726704,3.4462323 39.297074,2.4948996 37.755859,1.7597656 37.183935,1.4862265 36.597584,1.2429465 36,1.03125 34.073475,0.34946571 32.043607,5.8206773e-4 30,0 29.941355,-1.6374218e-5 29.882851,-5.5679013e-4 29.824219,0 Z M 30,6 c 1.219194,0.00253 2.431308,0.1909373 3.59375,0.5585937 C 34.432,6.8216205 35.239108,7.1760405 36,7.6152344 c 0.102416,0.057742 0.204014,0.117007 0.304687,0.1777343 0.789558,0.4893058 1.519872,1.0688365 2.175782,1.7265626 0.657732,0.6559167 1.237252,1.3862157 1.726562,2.1757817 0.06073,0.100677 0.11999,0.202267 0.177735,0.304687 0.4392,0.760904 0.79361,1.567987 1.05664,2.40625 C 41.80907,15.568715 41.997467,16.780782 42,18 41.9909,18.890002 41.882815,19.776478 41.677734,20.642578 41.402016,21.823066 40.948876,22.95526 40.333984,24 39.53655,25.371171 38.474885,26.570939 37.210937,27.529297 36.823961,27.821729 36.419503,28.090499 36,28.333984 c -0.06993,0.03846 -0.140256,0.07623 -0.210938,0.113282 -0.285085,0.167575 -0.577049,0.323334 -0.875,0.466796 C 33.371326,29.619263 31.696241,29.989433 30,30 28.803498,29.980728 27.616392,29.782549 26.478516,29.412109 25.690101,29.168181 24.928821,28.843507 24.207031,28.443359 24.137671,28.407577 24.068649,28.371113 24,28.333984 23.904273,28.284489 23.809202,28.233696 23.714844,28.181641 22.918578,27.702957 22.180484,27.133327 21.515625,26.484375 20.86667,25.819514 20.297044,25.081425 19.818359,24.285156 19.766303,24.190798 19.715511,24.095728 19.666016,24 19.628886,23.93135 19.592423,23.86233 19.556641,23.792969 19.156485,23.071166 18.831824,22.309914 18.587891,21.521484 18.217443,20.383583 18.019272,19.196529 18,18 c 0.01057,-1.696326 0.380703,-3.371249 1.085937,-4.914062 0.143473,-0.29797 0.299212,-0.589897 0.466797,-0.875 0.03706,-0.07069 0.07482,-0.141005 0.113282,-0.210938 0.243502,-0.419532 0.512234,-0.823934 0.804687,-1.210937 C 21.429132,9.5250214 22.628727,8.4635092 24,7.6660156 25.044828,7.0510736 26.176835,6.5980072 27.357422,6.3222656 28.223598,6.1171671 29.109919,6.0090793 30,6 Z"
       style="fill:#ffffff"
       id="path8" />
  </g>
</svg>
